<?xml version="1.0" encoding="UTF-8"?>
<svg version="1.1" xmlns="http://www.w3.org/2000/svg" width="268" height="106">
<path d="M0 0 C1.8046875 1.52734375 1.8046875 1.52734375 3 3 C3.33 2.01 3.66 1.02 4 0 C6.31 0 8.62 0 11 0 C11 0.33 11 0.66 11 1 C9.35 1 7.7 1 6 1 C6.01047363 1.69037354 6.02094727 2.38074707 6.03173828 3.09204102 C6.07355697 6.24882299 6.09940802 9.40554645 6.125 12.5625 C6.14175781 13.64853516 6.15851563 14.73457031 6.17578125 15.85351562 C6.25460544 28.82009407 6.25460544 28.82009407 2.6484375 33.90625 C-0.61367331 36.07068371 -4.27160172 35.69866658 -8 35 C-11.0625 32.8125 -11.0625 32.8125 -13 30 C-13.3125 27.1875 -13.3125 27.1875 -13 25 C-12.34 25 -11.68 25 -11 25 C-10.690625 25.969375 -10.38125 26.93875 -10.0625 27.9375 C-9.30476658 30.84065792 -9.30476658 30.84065792 -8 32 C-5.07464189 32.28309917 -2.84442628 32.47978275 0 32 C2.52723481 29.63071737 2.94384787 27.85534065 3.16796875 24.44140625 C3.18562434 21.95196797 3.13031826 19.48570007 3 17 C2.43152344 17.4846875 1.86304687 17.969375 1.27734375 18.46875 C-1.8632405 20.58042929 -4.11063803 20.53934681 -7.80859375 20.4296875 C-11.31635996 19.7418902 -12.89674991 17.76051575 -15 15 C-16.76066381 11.47867239 -15.93299981 7.72538222 -15 4 C-11.29654446 -0.89811862 -5.73550992 -1.07905356 0 0 Z M-14 6 C-14.70710353 8.82841411 -14.70710353 11.17158589 -14 14 C-11.88134472 16.6483191 -10.37782575 17.73807669 -7.02734375 18.375 C-3.65308955 18.57682455 -1.41434785 18.2656076 1.4375 16.4375 C3.55357459 13.13642364 4.06886551 10.92533388 4 7 C2.04423458 4.03480726 0.60785096 2.36880283 -2.94140625 1.5546875 C-7.73043285 1.28206739 -10.89465513 2.11831891 -14 6 Z " fill="#000000" transform="translate(110,34)"/>
<path d="M0 0 C0.99 0 1.98 0 3 0 C4.71371692 3.80648736 6.42258281 7.61510294 8.12695312 11.42578125 C8.70764887 12.72227868 9.28967458 14.01818127 9.87304688 15.31347656 C10.71052399 17.17358729 11.54322138 19.03577294 12.375 20.8984375 C13.12910156 22.57945557 13.12910156 22.57945557 13.8984375 24.29443359 C15 27 15 27 15 29 C18.63 29 22.26 29 26 29 C26 19.76 26 10.52 26 1 C24.02 1 22.04 1 20 1 C20 0.67 20 0.34 20 0 C24.29 0 28.58 0 33 0 C33 0.33 33 0.66 33 1 C31.02 1 29.04 1 27 1 C27 10.24 27 19.48 27 29 C28.98 29 30.96 29 33 29 C33 29.33 33 29.66 33 30 C24.75 30 16.5 30 8 30 C8 29.67 8 29.34 8 29 C9.65 29 11.3 29 13 29 C12.505 28.05125 12.01 27.1025 11.5 26.125 C10 23 10 23 10 21 C4.39 21 -1.22 21 -7 21 C-7.66 22.98 -8.32 24.96 -9 27 C-9.33 27.66 -9.66 28.32 -10 29 C-8.35 29 -6.7 29 -5 29 C-5 29.33 -5 29.66 -5 30 C-8.96 30 -12.92 30 -17 30 C-17 29.67 -17 29.34 -17 29 C-15.35 29 -13.7 29 -12 29 C-11.75672974 28.20928101 -11.75672974 28.20928101 -11.50854492 27.40258789 C-9.53008557 21.20260524 -7.0303037 15.34558046 -4.3125 9.4375 C-3.89677734 8.52419922 -3.48105469 7.61089844 -3.05273438 6.66992188 C-2.03917098 4.44474248 -1.02154784 2.22152219 0 0 Z M1 2 C-0.17112946 4.62309099 -1.33705964 7.24828142 -2.5 9.875 C-2.83386719 10.62136719 -3.16773438 11.36773437 -3.51171875 12.13671875 C-3.82753906 12.85214844 -4.14335937 13.56757812 -4.46875 14.3046875 C-4.90864258 15.2944458 -4.90864258 15.2944458 -5.35742188 16.30419922 C-6.11811255 18.00946207 -6.11811255 18.00946207 -6 20 C-1.05 20 3.9 20 9 20 C7.58452992 15.75358975 6.10951236 11.73305558 4.375 7.625 C3.70597656 6.03558594 3.70597656 6.03558594 3.0234375 4.4140625 C2.68570313 3.61742187 2.34796875 2.82078125 2 2 C1.67 2 1.34 2 1 2 Z " fill="#000000" transform="translate(215,24)"/>
<path d="M0 0 C2.31 0 4.62 0 7 0 C7.33 0.66 7.66 1.32 8 2 C8.66 1.34 9.32 0.68 10 0 C18.20588235 -0.52941176 18.20588235 -0.52941176 22 2 C22.66 1.34 23.32 0.68 24 0 C26.09375 -0.265625 26.09375 -0.265625 28.5 -0.25 C29.2940625 -0.25515625 30.088125 -0.2603125 30.90625 -0.265625 C33 0 33 0 35 2 C35.14517744 4.9093558 35.18630796 7.719946 35.125 10.625 C35.11597656 11.42679688 35.10695312 12.22859375 35.09765625 13.0546875 C35.07406223 15.03658523 35.03819065 17.01832981 35 19 C36.98 19 38.96 19 41 19 C41 19.33 41 19.66 41 20 C38.69 20 36.38 20 34 20 C33.94392578 18.42798828 33.94392578 18.42798828 33.88671875 16.82421875 C33.82105485 15.44527695 33.75460765 14.06637229 33.6875 12.6875 C33.65366211 11.65206055 33.65366211 11.65206055 33.61914062 10.59570312 C33.4163003 6.50793266 33.4163003 6.50793266 31.45703125 3.01953125 C30.97621094 2.68308594 30.49539062 2.34664062 30 2 C25.66770285 2.8604139 25.66770285 2.8604139 22 5 C21.76472227 7.34987262 21.58613583 9.70556039 21.4375 12.0625 C21.35371094 13.35285156 21.26992188 14.64320312 21.18359375 15.97265625 C21.09271484 17.47119141 21.09271484 17.47119141 21 19 C22.98 19 24.96 19 27 19 C27 19.33 27 19.66 27 20 C24.69 20 22.38 20 20 20 C19.95101562 19.02417969 19.90203125 18.04835938 19.8515625 17.04296875 C19.77679688 15.77066406 19.70203125 14.49835937 19.625 13.1875 C19.55539063 11.92292969 19.48578125 10.65835938 19.4140625 9.35546875 C19.23897061 5.87244766 19.23897061 5.87244766 17 3 C12.94554358 2.56867485 11.45029042 2.69980639 8 5 C7.41312216 8.34613512 7.41312216 8.34613512 7.3125 12.125 C7.24675781 13.40632813 7.18101563 14.68765625 7.11328125 16.0078125 C7.07589844 16.99523437 7.03851563 17.98265625 7 19 C8.65 19 10.3 19 12 19 C12 19.33 12 19.66 12 20 C8.04 20 4.08 20 0 20 C0 19.67 0 19.34 0 19 C1.65 19 3.3 19 5 19 C5 13.06 5 7.12 5 1 C3.35 1 1.7 1 0 1 C0 0.67 0 0.34 0 0 Z " fill="#000000" transform="translate(26,34)"/>
<path d="M0 0 C1.06089844 -0.04898438 2.12179688 -0.09796875 3.21484375 -0.1484375 C6.0625 0.375 6.0625 0.375 7.9296875 2.44140625 C9.31857081 6.0381351 9.3578311 8.84152416 9.25 12.6875 C9.22292969 13.94175781 9.19585937 15.19601563 9.16796875 16.48828125 C9.13316406 17.44089844 9.09835938 18.39351562 9.0625 19.375 C10.7125 19.375 12.3625 19.375 14.0625 19.375 C14.0625 19.705 14.0625 20.035 14.0625 20.375 C10.72916667 20.375 7.39583333 20.375 4.0625 20.375 C3.27875 20.40980469 2.495 20.44460937 1.6875 20.48046875 C0.82125 20.50753906 -0.045 20.53460938 -0.9375 20.5625 C-2.236875 20.61470703 -2.236875 20.61470703 -3.5625 20.66796875 C-5.9375 20.375 -5.9375 20.375 -7.7265625 19.08203125 C-9.74229039 16.24050516 -9.29704563 13.73075924 -8.9375 10.375 C-7.76171875 8.671875 -7.76171875 8.671875 -5.9375 7.375 C-3.30859375 7.046875 -3.30859375 7.046875 -0.375 7.125 C1.08099609 7.14820313 1.08099609 7.14820313 2.56640625 7.171875 C5.0625 7.375 5.0625 7.375 7.0625 8.375 C6.43716625 5.85136012 6.43716625 5.85136012 5.0625 3.375 C0.83116406 1.6326852 -3.53971733 2.7041518 -7.9375 3.375 C-7.9375 2.715 -7.9375 2.055 -7.9375 1.375 C-5.24210046 0.02730023 -3.00738169 0.09477809 0 0 Z M-6.80078125 10.7265625 C-8.21027313 12.40320716 -8.21027313 12.40320716 -7.75 15 C-7.19105766 17.54052003 -7.19105766 17.54052003 -4.9375 18.375 C-2.82794938 18.57238723 -2.82794938 18.57238723 -0.5 18.5625 C0.67369141 18.58376953 0.67369141 18.58376953 1.87109375 18.60546875 C4.35455987 18.51586064 4.35455987 18.51586064 7.0625 16.375 C7.39590471 13.33304573 7.39590471 13.33304573 7.0625 10.375 C5.33030072 8.64280072 3.04223192 9.16208239 0.6875 9.125 C-0.28960937 9.09921875 -1.26671875 9.0734375 -2.2734375 9.046875 C-4.95613659 9.15922161 -4.95613659 9.15922161 -6.80078125 10.7265625 Z " fill="#000000" transform="translate(168.9375,33.625)"/>
<path d="M0 0 C1.06089844 -0.04898438 2.12179688 -0.09796875 3.21484375 -0.1484375 C6.0625 0.375 6.0625 0.375 7.9296875 2.44140625 C9.31857081 6.0381351 9.3578311 8.84152416 9.25 12.6875 C9.22292969 13.94175781 9.19585937 15.19601563 9.16796875 16.48828125 C9.13316406 17.44089844 9.09835938 18.39351562 9.0625 19.375 C10.7125 19.375 12.3625 19.375 14.0625 19.375 C14.0625 19.705 14.0625 20.035 14.0625 20.375 C10.72916667 20.375 7.39583333 20.375 4.0625 20.375 C3.27875 20.40980469 2.495 20.44460937 1.6875 20.48046875 C0.82125 20.50753906 -0.045 20.53460938 -0.9375 20.5625 C-2.236875 20.61470703 -2.236875 20.61470703 -3.5625 20.66796875 C-5.9375 20.375 -5.9375 20.375 -7.7265625 19.08203125 C-9.74229039 16.24050516 -9.29704563 13.73075924 -8.9375 10.375 C-7.76171875 8.671875 -7.76171875 8.671875 -5.9375 7.375 C-3.30859375 7.046875 -3.30859375 7.046875 -0.375 7.125 C1.08099609 7.14820313 1.08099609 7.14820313 2.56640625 7.171875 C5.0625 7.375 5.0625 7.375 7.0625 8.375 C6.43716625 5.85136012 6.43716625 5.85136012 5.0625 3.375 C0.83116406 1.6326852 -3.53971733 2.7041518 -7.9375 3.375 C-7.9375 2.715 -7.9375 2.055 -7.9375 1.375 C-5.24210046 0.02730023 -3.00738169 0.09477809 0 0 Z M-6.80078125 10.7265625 C-8.21027313 12.40320716 -8.21027313 12.40320716 -7.75 15 C-7.19105766 17.54052003 -7.19105766 17.54052003 -4.9375 18.375 C-2.82794938 18.57238723 -2.82794938 18.57238723 -0.5 18.5625 C0.67369141 18.58376953 0.67369141 18.58376953 1.87109375 18.60546875 C4.35455987 18.51586064 4.35455987 18.51586064 7.0625 16.375 C7.39590471 13.33304573 7.39590471 13.33304573 7.0625 10.375 C5.33030072 8.64280072 3.04223192 9.16208239 0.6875 9.125 C-0.28960937 9.09921875 -1.26671875 9.0734375 -2.2734375 9.046875 C-4.95613659 9.15922161 -4.95613659 9.15922161 -6.80078125 10.7265625 Z " fill="#000000" transform="translate(77.9375,33.625)"/>
<path d="M0 0 C0.66 0 1.32 0 2 0 C2 3.3 2 6.6 2 10 C1.34 10 0.68 10 0 10 C-0.12375 9.195625 -0.2475 8.39125 -0.375 7.5625 C-0.58125 6.716875 -0.7875 5.87125 -1 5 C-4.19877392 3.40061304 -7.52144213 3.64251974 -11 4 C-13.61760705 4.79573513 -13.61760705 4.79573513 -15 7 C-15.55596723 9.77983616 -15.55029086 12.21958302 -15 15 C-13.67734485 17.22303517 -13.67734485 17.22303517 -11 18 C-6.49627456 18.42971325 -2.36032895 18.22881998 2 17 C0.625 19 0.625 19 -2 21 C-6.74203644 21.83165563 -10.69615201 21.61201028 -15.0625 19.5625 C-17.83776879 15.89198321 -18.42627809 12.56275438 -18 8 C-15.20481928 2.60240964 -15.20481928 2.60240964 -12 1 C-10.50243129 0.90500497 -9.00057068 0.87012802 -7.5 0.875 C-6.30890625 0.87113281 -6.30890625 0.87113281 -5.09375 0.8671875 C-3 1 -3 1 -1 2 C-0.67 1.34 -0.34 0.68 0 0 Z " fill="#000000" transform="translate(154,33)"/>
<path d="M0 0 C2.31 0 4.62 0 7 0 C7 6.27 7 12.54 7 19 C8.65 19 10.3 19 12 19 C12 19.33 12 19.66 12 20 C8.04 20 4.08 20 0 20 C0 19.67 0 19.34 0 19 C1.65 19 3.3 19 5 19 C5 13.06 5 7.12 5 1 C3.35 1 1.7 1 0 1 C0 0.67 0 0.34 0 0 Z " fill="#000000" transform="translate(122,34)"/>
<path d="M0 0 C4.29 0 8.58 0 13 0 C13 0.33 13 0.66 13 1 C11.02 1 9.04 1 7 1 C7 10.24 7 19.48 7 29 C8.98 29 10.96 29 13 29 C13 29.33 13 29.66 13 30 C8.71 30 4.42 30 0 30 C0 29.67 0 29.34 0 29 C1.98 29 3.96 29 6 29 C6 19.76 6 10.52 6 1 C4.02 1 2.04 1 0 1 C0 0.67 0 0.34 0 0 Z " fill="#000000" transform="translate(11,24)"/>
<path d="M0 0 C3.3 0 6.6 0 10 0 C10 0.33 10 0.66 10 1 C6.7 1 3.4 1 0 1 C0 0.67 0 0.34 0 0 Z " fill="#000000" transform="translate(186,42)"/>
<path d="M0 0 C0.99 0 1.98 0 3 0 C3 0.99 3 1.98 3 3 C2.01 3 1.02 3 0 3 C0 2.01 0 1.02 0 0 Z " fill="#000000" transform="translate(126,26)"/>
</svg>
